<svg xmlns="http://www.w3.org/2000/svg" version="1.1" xmlns:xlink="http://www.w3.org/1999/xlink" xmlns:svgjs="http://svgjs.com/svgjs" width="1920" height="1200" preserveAspectRatio="none" viewBox="0 0 1920 1200"><g mask="url(&quot;#SvgjsMask1060&quot;)" fill="none"><rect width="1920" height="1200" x="0" y="0" fill="#0e2a47"></rect><path d="M264 850L-556 1670" stroke-width="6" stroke="url(#SvgjsLinearGradient1061)" stroke-linecap="round" class="BottomLeft"></path><path d="M415 367L-365 1147" stroke-width="8" stroke="url(#SvgjsLinearGradient1062)" stroke-linecap="round" class="TopRight"></path><path d="M1738 22L1153 607" stroke-width="6" stroke="url(#SvgjsLinearGradient1062)" stroke-linecap="round" class="TopRight"></path><path d="M1912 844L1532 1224" stroke-width="8" stroke="url(#SvgjsLinearGradient1061)" stroke-linecap="round" class="BottomLeft"></path><path d="M766 649L1119 296" stroke-width="10" stroke="url(#SvgjsLinearGradient1061)" stroke-linecap="round" class="BottomLeft"></path><path d="M1820 795L1417 1198" stroke-width="10" stroke="url(#SvgjsLinearGradient1062)" stroke-linecap="round" class="TopRight"></path><path d="M309 1054L-457 1820" stroke-width="8" stroke="url(#SvgjsLinearGradient1061)" stroke-linecap="round" class="BottomLeft"></path><path d="M1079 321L324 1076" stroke-width="8" stroke="url(#SvgjsLinearGradient1062)" stroke-linecap="round" class="TopRight"></path><path d="M601 839L-129 1569" stroke-width="10" stroke="url(#SvgjsLinearGradient1062)" stroke-linecap="round" class="TopRight"></path><path d="M1532 1014L998 1548" stroke-width="6" stroke="url(#SvgjsLinearGradient1061)" stroke-linecap="round" class="BottomLeft"></path><path d="M284 226L-102 612" stroke-width="10" stroke="url(#SvgjsLinearGradient1061)" stroke-linecap="round" class="BottomLeft"></path><path d="M83 196L779 -500" stroke-width="10" stroke="url(#SvgjsLinearGradient1061)" stroke-linecap="round" class="BottomLeft"></path><path d="M1678 580L2138 120" stroke-width="10" stroke="url(#SvgjsLinearGradient1061)" stroke-linecap="round" class="BottomLeft"></path><path d="M1084 517L1801 -200" stroke-width="8" stroke="url(#SvgjsLinearGradient1061)" stroke-linecap="round" class="BottomLeft"></path><path d="M1831 1039L2614 256" stroke-width="6" stroke="url(#SvgjsLinearGradient1061)" stroke-linecap="round" class="BottomLeft"></path><path d="M1388 1056L2230 214" stroke-width="10" stroke="url(#SvgjsLinearGradient1062)" stroke-linecap="round" class="TopRight"></path><path d="M702 1105L348 1459" stroke-width="6" stroke="url(#SvgjsLinearGradient1061)" stroke-linecap="round" class="BottomLeft"></path><path d="M431 182L966 -353" stroke-width="8" stroke="url(#SvgjsLinearGradient1061)" stroke-linecap="round" class="BottomLeft"></path><path d="M856 245L1315 -214" stroke-width="10" stroke="url(#SvgjsLinearGradient1061)" stroke-linecap="round" class="BottomLeft"></path><path d="M1909 4L1010 903" stroke-width="10" stroke="url(#SvgjsLinearGradient1061)" stroke-linecap="round" class="BottomLeft"></path><path d="M68 920L-444 1432" stroke-width="6" stroke="url(#SvgjsLinearGradient1062)" stroke-linecap="round" class="TopRight"></path><path d="M1386 694L611 1469" stroke-width="8" stroke="url(#SvgjsLinearGradient1061)" stroke-linecap="round" class="BottomLeft"></path><path d="M1607 575L2298 -116" stroke-width="6" stroke="url(#SvgjsLinearGradient1061)" stroke-linecap="round" class="BottomLeft"></path><path d="M1326 123L679 770" stroke-width="8" stroke="url(#SvgjsLinearGradient1062)" stroke-linecap="round" class="TopRight"></path><path d="M739 288L190 837" stroke-width="6" stroke="url(#SvgjsLinearGradient1061)" stroke-linecap="round" class="BottomLeft"></path><path d="M999 741L1510 230" stroke-width="6" stroke="url(#SvgjsLinearGradient1062)" stroke-linecap="round" class="TopRight"></path><path d="M896 1061L1540 417" stroke-width="10" stroke="url(#SvgjsLinearGradient1062)" stroke-linecap="round" class="TopRight"></path><path d="M274 1093L-301 1668" stroke-width="8" stroke="url(#SvgjsLinearGradient1062)" stroke-linecap="round" class="TopRight"></path><path d="M959 285L469 775" stroke-width="10" stroke="url(#SvgjsLinearGradient1062)" stroke-linecap="round" class="TopRight"></path><path d="M940 783L55 1668" stroke-width="6" stroke="url(#SvgjsLinearGradient1061)" stroke-linecap="round" class="BottomLeft"></path><path d="M1374 810L2126 58" stroke-width="10" stroke="url(#SvgjsLinearGradient1062)" stroke-linecap="round" class="TopRight"></path><path d="M1057 709L349 1417" stroke-width="10" stroke="url(#SvgjsLinearGradient1061)" stroke-linecap="round" class="BottomLeft"></path><path d="M848 167L1447 -432" stroke-width="6" stroke="url(#SvgjsLinearGradient1061)" stroke-linecap="round" class="BottomLeft"></path><path d="M649 45L76 618" stroke-width="10" stroke="url(#SvgjsLinearGradient1062)" stroke-linecap="round" class="TopRight"></path><path d="M250 306L-310 866" stroke-width="10" stroke="url(#SvgjsLinearGradient1061)" stroke-linecap="round" class="BottomLeft"></path><path d="M1334 52L1863 -477" stroke-width="8" stroke="url(#SvgjsLinearGradient1061)" stroke-linecap="round" class="BottomLeft"></path><path d="M926 393L1769 -450" stroke-width="8" stroke="url(#SvgjsLinearGradient1061)" stroke-linecap="round" class="BottomLeft"></path><path d="M331 462L960 -167" stroke-width="6" stroke="url(#SvgjsLinearGradient1062)" stroke-linecap="round" class="TopRight"></path><path d="M1654 429L2455 -372" stroke-width="6" stroke="url(#SvgjsLinearGradient1061)" stroke-linecap="round" class="BottomLeft"></path><path d="M849 422L410 861" stroke-width="8" stroke="url(#SvgjsLinearGradient1062)" stroke-linecap="round" class="TopRight"></path><path d="M83 1036L628 491" stroke-width="8" stroke="url(#SvgjsLinearGradient1062)" stroke-linecap="round" class="TopRight"></path><path d="M1169 917L1483 603" stroke-width="8" stroke="url(#SvgjsLinearGradient1062)" stroke-linecap="round" class="TopRight"></path><path d="M1061 994L1386 669" stroke-width="6" stroke="url(#SvgjsLinearGradient1061)" stroke-linecap="round" class="BottomLeft"></path><path d="M1267 190L1994 -537" stroke-width="10" stroke="url(#SvgjsLinearGradient1062)" stroke-linecap="round" class="TopRight"></path><path d="M146 1024L881 289" stroke-width="10" stroke="url(#SvgjsLinearGradient1061)" stroke-linecap="round" class="BottomLeft"></path><path d="M286 285L684 -113" stroke-width="8" stroke="url(#SvgjsLinearGradient1062)" stroke-linecap="round" class="TopRight"></path><path d="M537 21L-226 784" stroke-width="6" stroke="url(#SvgjsLinearGradient1062)" stroke-linecap="round" class="TopRight"></path><path d="M1048 1010L1634 424" stroke-width="8" stroke="url(#SvgjsLinearGradient1061)" stroke-linecap="round" class="BottomLeft"></path><path d="M1809 1045L2670 184" stroke-width="6" stroke="url(#SvgjsLinearGradient1062)" stroke-linecap="round" class="TopRight"></path><path d="M926 366L409 883" stroke-width="10" stroke="url(#SvgjsLinearGradient1062)" stroke-linecap="round" class="TopRight"></path><path d="M1862 381L2290 -47" stroke-width="8" stroke="url(#SvgjsLinearGradient1061)" stroke-linecap="round" class="BottomLeft"></path><path d="M1378 889L1979 288" stroke-width="6" stroke="url(#SvgjsLinearGradient1062)" stroke-linecap="round" class="TopRight"></path><path d="M1357 992L1816 533" stroke-width="8" stroke="url(#SvgjsLinearGradient1062)" stroke-linecap="round" class="TopRight"></path><path d="M1067 1113L653 1527" stroke-width="8" stroke="url(#SvgjsLinearGradient1061)" stroke-linecap="round" class="BottomLeft"></path><path d="M1517 864L909 1472" stroke-width="6" stroke="url(#SvgjsLinearGradient1062)" stroke-linecap="round" class="TopRight"></path><path d="M1869 73L1154 788" stroke-width="6" stroke="url(#SvgjsLinearGradient1062)" stroke-linecap="round" class="TopRight"></path><path d="M1381 201L776 806" stroke-width="8" stroke="url(#SvgjsLinearGradient1061)" stroke-linecap="round" class="BottomLeft"></path></g><defs><mask id="SvgjsMask1060"><rect width="1920" height="1200" fill="#ffffff"></rect></mask><linearGradient x1="100%" y1="0%" x2="0%" y2="100%" id="SvgjsLinearGradient1061"><stop stop-color="rgba(28, 83, 142, 0)" offset="0"></stop><stop stop-color="#1c538e" offset="1"></stop></linearGradient><linearGradient x1="0%" y1="100%" x2="100%" y2="0%" id="SvgjsLinearGradient1062"><stop stop-color="rgba(28, 83, 142, 0)" offset="0"></stop><stop stop-color="#1c538e" offset="1"></stop></linearGradient></defs></svg>