<svg xmlns:xlink="http://www.w3.org/1999/xlink" width="245" xmlns="http://www.w3.org/2000/svg" height="60" id="screenshot-f7ff5e70-3411-11ed-b999-6b21fcc48d1d" viewBox="0 0 245 60" style="-webkit-print-color-adjust: exact;" fill="none" version="1.1"><g id="shape-f7ff5e70-3411-11ed-b999-6b21fcc48d1d"><defs><clipPath id="frame-clip-f7ff5e70-3411-11ed-b999-6b21fcc48d1d-a2d18850-3412-11ed-831b-33d9d1bcbcc7" class="frame-clip"><rect rx="0" ry="0" x="0" y="0" width="245" height="60" transform="" style="fill: rgb(183, 210, 236); fill-opacity: 0;"/></clipPath></defs><g clip-path="url(#frame-clip-f7ff5e70-3411-11ed-b999-6b21fcc48d1d-a2d18850-3412-11ed-831b-33d9d1bcbcc7)"><clipPath id="frame-clip-f7ff5e70-3411-11ed-b999-6b21fcc48d1d-a2d18850-3412-11ed-831b-33d9d1bcbcc7" class="frame-clip"><rect rx="0" ry="0" x="0" y="0" width="245" height="60" transform="" style="fill: rgb(183, 210, 236); fill-opacity: 0;"/></clipPath><g id="fills-f7ff5e70-3411-11ed-b999-6b21fcc48d1d"><rect width="245" height="60" class="frame-background" x="0" transform="" style="fill: rgb(183, 210, 236); fill-opacity: 0;" ry="0" rx="0" y="0"/></g><g class="frame-children"><g xmlns:xlink="http://www.w3.org/1999/xlink" width="142.61mm" xml:space="preserve" height="35.11mm" id="shape-f7ff5e71-3411-11ed-b999-6b21fcc48d1d" preserveAspectRatio="xMidYMid" style="fill: rgb(0, 0, 0);" ry="0" rx="0" version="1.2"><g id="shape-f7ff5e72-3411-11ed-b999-6b21fcc48d1d" class="Page" rx="0" ry="0" style="fill: rgb(0, 0, 0);"><g id="shape-f7ff5e73-3411-11ed-b999-6b21fcc48d1d" class="com.sun.star.drawing.ClosedBezierShape" rx="0" ry="0" style="fill: rgb(0, 0, 0);"><g id="shape-f7ff5e74-3411-11ed-b999-6b21fcc48d1d" rx="0" ry="0" style="fill: rgb(0, 0, 0);"><g id="shape-f7ff5e75-3411-11ed-b999-6b21fcc48d1d"><defs><pattern patternUnits="userSpaceOnUse" x="-1.4210854715202004e-14" y="0" height="60" width="245.00000000000003" data-loading="false" id="fill-0-a2d35d11-3412-11ed-831b-33d9d1bcbcc7"><g><rect width="245.00000000000003" height="60" style="fill: rgb(255, 255, 255);"/><rect width="245.00000000000003" height="60" style="fill: rgb(255, 255, 255); fill-opacity: 1;"/></g></pattern></defs><g id="fills-f7ff5e75-3411-11ed-b999-6b21fcc48d1d"><path rx="0" ry="0" d="M0,0L208.869,0L208.869,0L245,0L245,35.197L245,60L245,60L175.623,60L175.623,60L166.518,60L158.254,60L158.254,60L150.505,60L142.292,60L142.292,60L134.046,60L119.304,60L119.304,60L110.834,60L88.671,60L88.671,60L80.132,60L73.208,60L73.208,60L70.047,60L58.965,60L58.965,60L49.911,60L41.647,60L41.647,60L33.898,60L25.685,60L21.012,60L0,60L0,60L0,60L0,36.12L0,36.12L0,0ZM120.902,44.906L121.022,44.342L121.177,43.812L121.349,43.333L121.572,42.889L121.796,42.479L122.07,42.103L122.345,41.761L122.655,41.453L122.981,41.197L123.342,40.957L123.703,40.769L124.098,40.598L124.493,40.479L124.905,40.393L125.335,40.342L125.764,40.325L126.314,40.342L126.795,40.41L127.259,40.53L127.671,40.667L128.049,40.855L128.393,41.077L128.702,41.35L128.96,41.641L129.201,41.949L129.407,42.308L129.561,42.684L129.699,43.077L129.802,43.504L129.871,43.949L129.922,44.427L129.922,44.906L120.902,44.906ZM97.021,47.88L96.66,47.863L96.316,47.812L95.99,47.726L95.681,47.607L95.388,47.47L95.114,47.282L94.856,47.06L94.615,46.821L94.409,46.53L94.22,46.222L94.048,45.88L93.911,45.504L93.808,45.094L93.722,44.65L93.67,44.171L93.653,43.675L93.67,43.179L93.722,42.718L93.791,42.291L93.911,41.897L94.031,41.521L94.203,41.179L94.392,40.889L94.598,40.615L94.839,40.376L95.079,40.154L95.371,39.983L95.663,39.846L95.973,39.726L96.299,39.641L96.66,39.59L97.021,39.573L97.381,39.59L97.725,39.641L98.069,39.726L98.378,39.846L98.67,39.983L98.945,40.154L99.203,40.376L99.443,40.615L99.649,40.889L99.838,41.179L99.993,41.521L100.13,41.897L100.234,42.291L100.319,42.718L100.371,43.179L100.388,43.675L100.371,44.171L100.319,44.65L100.234,45.094L100.13,45.504L99.993,45.88L99.838,46.222L99.649,46.53L99.443,46.821L99.203,47.06L98.945,47.282L98.67,47.47L98.378,47.607L98.069,47.726L97.725,47.812L97.381,47.863L97.021,47.88ZM7.199,47.88L6.855,47.863L6.512,47.812L6.185,47.726L5.859,47.607L5.567,47.47L5.292,47.282L5.034,47.06L4.793,46.821L4.587,46.53L4.398,46.222L4.227,45.88L4.089,45.504L3.986,45.094L3.9,44.65L3.849,44.171L3.849,43.675L3.849,43.179L3.9,42.718L3.986,42.291L4.089,41.897L4.227,41.521L4.381,41.179L4.57,40.889L4.776,40.615L5.017,40.376L5.275,40.154L5.549,39.983L5.842,39.846L6.151,39.726L6.494,39.641L6.838,39.59L7.199,39.573L7.56,39.59L7.92,39.641L8.247,39.726L8.556,39.846L8.865,39.983L9.14,40.154L9.398,40.376L9.621,40.615L9.827,40.889L10.016,41.179L10.188,41.521L10.309,41.897L10.429,42.291L10.498,42.718L10.549,43.179L10.566,43.675L10.549,44.171L10.498,44.65L10.429,45.094L10.309,45.504L10.188,45.88L10.016,46.222L9.827,46.53L9.621,46.821L9.398,47.06L9.14,47.282L8.865,47.47L8.556,47.607L8.247,47.726L7.92,47.812L7.56,47.863L7.199,47.88ZM41.647,60L49.911,60L49.911,44.786L49.893,43.59L49.808,42.444L49.653,41.35L49.447,40.342L49.172,39.385L48.828,38.513L48.433,37.709L47.969,36.974L47.437,36.325L46.835,35.744L46.165,35.248L45.409,34.838L44.602,34.513L43.708,34.291L42.746,34.154L41.698,34.103L41.028,34.12L40.375,34.188L39.757,34.274L39.155,34.41L38.554,34.581L37.987,34.786L37.437,35.009L36.922,35.265L35.908,35.846L34.946,36.53L34.053,37.248L33.211,38.034L33.005,38.034L32.403,34.735L25.685,34.735L25.685,60L33.898,60L33.898,43.47L35.066,42.462L35.616,42.051L36.149,41.709L36.424,41.556L36.698,41.436L36.973,41.316L37.265,41.231L37.575,41.162L37.884,41.111L38.21,41.077L38.554,41.077L38.932,41.077L39.293,41.128L39.619,41.197L39.928,41.299L40.221,41.436L40.461,41.624L40.702,41.829L40.891,42.085L41.08,42.393L41.234,42.735L41.354,43.128L41.458,43.556L41.543,44.051L41.595,44.598L41.647,45.863L41.647,60ZM73.208,60L80.132,60L80.132,34.735L71.851,34.735L71.851,52.085L71.335,52.769L70.82,53.333L70.562,53.59L70.304,53.812L70.064,54L69.806,54.171L69.531,54.325L69.273,54.462L68.999,54.564L68.707,54.65L68.397,54.718L68.088,54.769L67.762,54.786L67.418,54.803L67.04,54.786L66.679,54.752L66.353,54.667L66.043,54.581L65.769,54.444L65.511,54.274L65.288,54.051L65.081,53.812L64.892,53.504L64.755,53.179L64.617,52.786L64.514,52.359L64.428,51.863L64.377,51.316L64.325,50.068L64.325,34.735L56.061,34.735L56.061,51.128L56.096,52.342L56.182,53.487L56.319,54.564L56.525,55.573L56.8,56.53L57.144,57.402L57.539,58.222L58.02,58.94L58.553,59.607L58.965,60L70.047,60L70.047,60L70.442,59.709L70.888,59.333L71.765,58.496L72.607,57.573L72.813,57.573L73.208,60ZM88.671,60L110.834,60L110.697,59.709L110.319,59.094L109.855,58.53L109.322,58.034L108.721,57.607L108.016,57.231L107.261,56.889L106.419,56.632L105.491,56.41L104.512,56.239L103.446,56.12L101.127,56.017L96.918,56.017L95.938,56L95.114,55.915L94.753,55.846L94.444,55.761L94.151,55.675L93.911,55.573L93.688,55.453L93.499,55.316L93.344,55.162L93.224,54.991L93.138,54.803L93.069,54.598L93.035,54.393L93.018,54.154L93.035,53.863L93.052,53.726L93.069,53.59L93.103,53.47L93.138,53.35L93.172,53.248L93.224,53.128L93.275,53.026L93.344,52.923L93.413,52.838L93.481,52.735L93.67,52.547L93.877,52.342L94.736,52.564L95.543,52.701L95.938,52.769L96.316,52.803L96.677,52.821L97.021,52.821L98.103,52.803L99.151,52.701L100.182,52.53L101.144,52.308L102.072,52.017L102.948,51.641L103.756,51.214L104.512,50.701L105.182,50.12L105.783,49.47L106.316,48.735L106.762,47.932L107.106,47.06L107.364,46.103L107.535,45.06L107.587,43.949L107.57,43.47L107.518,43.009L107.45,42.547L107.346,42.12L107.226,41.709L107.089,41.333L106.934,40.991L106.779,40.701L110.954,40.701L110.954,34.735L101.178,34.735L100.715,34.581L100.216,34.462L99.718,34.342L99.203,34.256L98.67,34.188L98.12,34.137L97.57,34.103L97.021,34.103L95.938,34.137L94.89,34.239L93.859,34.427L92.846,34.684L91.884,35.026L90.973,35.436L90.114,35.915L89.306,36.479L88.568,37.111L87.915,37.812L87.331,38.598L86.85,39.47L86.454,40.393L86.162,41.419L85.973,42.513L85.922,43.675L85.939,44.239L85.991,44.803L86.094,45.333L86.214,45.863L86.369,46.359L86.558,46.855L86.764,47.316L87.004,47.761L87.262,48.188L87.537,48.581L87.829,48.957L88.155,49.316L88.465,49.641L88.808,49.949L89.152,50.239L89.495,50.496L89.495,50.701L88.877,51.197L88.31,51.744L88.052,52.034L87.812,52.325L87.588,52.65L87.382,52.957L87.193,53.282L87.039,53.624L86.901,53.966L86.781,54.308L86.678,54.65L86.609,55.009L86.575,55.35L86.558,55.709L86.575,56.103L86.609,56.479L86.661,56.855L86.746,57.197L86.832,57.521L86.953,57.846L87.09,58.137L87.245,58.427L87.399,58.684L87.588,58.94L87.795,59.197L88.001,59.419L88.224,59.641L88.465,59.846L88.671,60ZL88.671,60ZM119.304,60L134.046,60L134.939,59.538L136.021,58.838L133.341,53.897L132.637,54.274L131.932,54.598L131.228,54.889L130.506,55.111L129.785,55.299L129.08,55.436L128.359,55.521L127.637,55.538L127.019,55.521L126.417,55.47L125.833,55.385L125.283,55.248L124.768,55.077L124.252,54.872L123.789,54.615L123.342,54.325L122.93,54L122.552,53.624L122.208,53.197L121.899,52.735L121.624,52.222L121.383,51.675L121.177,51.077L121.022,50.427L136.657,50.427L136.709,50.12L136.777,49.761L136.88,48.906L136.949,47.897L136.966,46.821L136.932,45.487L136.795,44.205L136.571,42.974L136.262,41.795L135.867,40.684L135.386,39.641L134.819,38.667L134.149,37.761L133.393,36.957L132.551,36.222L131.606,35.607L130.575,35.077L129.458,34.65L128.256,34.342L126.95,34.154L125.558,34.103L124.373,34.154L123.187,34.342L122.036,34.632L120.919,35.06L119.837,35.59L118.789,36.222L117.81,36.957L116.899,37.795L116.057,38.752L115.301,39.795L114.648,40.923L114.081,42.154L113.617,43.47L113.291,44.872L113.085,46.359L113.016,47.932L113.085,49.538L113.274,51.06L113.6,52.496L114.047,53.829L114.597,55.077L115.267,56.205L116.04,57.248L116.899,58.188L117.844,59.026L118.875,59.761L119.304,60ZM158.254,60L166.518,60L166.518,44.786L166.483,43.59L166.397,42.444L166.26,41.35L166.036,40.342L165.779,39.385L165.435,38.513L165.04,37.709L164.576,36.974L164.043,36.325L163.425,35.744L162.755,35.248L162.016,34.838L161.191,34.513L160.315,34.291L159.336,34.154L158.305,34.103L157.635,34.12L156.982,34.188L156.364,34.274L155.745,34.41L155.161,34.581L154.594,34.786L154.044,35.009L153.512,35.265L152.498,35.846L151.553,36.53L150.66,37.248L149.818,38.034L149.594,38.034L149.01,34.735L142.292,34.735L142.292,60L150.505,60L150.505,43.47L151.673,42.462L152.206,42.051L152.756,41.709L153.013,41.556L153.305,41.436L153.58,41.316L153.872,41.231L154.164,41.162L154.491,41.111L154.817,41.077L155.144,41.077L155.539,41.077L155.9,41.128L156.226,41.197L156.535,41.299L156.81,41.436L157.068,41.624L157.291,41.829L157.498,42.085L157.669,42.393L157.824,42.735L157.961,43.128L158.065,43.556L158.15,44.051L158.202,44.598L158.254,45.863L158.254,60ZM208.869,0L193.028,0C192.495,0.239,191.962,0.496,191.43,0.786C179.695,7.077,179.094,14.085,179.214,21.453C179.317,28.838,184.661,33.504,189.884,34.308C183.269,36.615,179.523,29.726,174.335,27.436C169.421,32.615,172.892,40.974,180.675,43.197C173.321,42.513,175.469,48.632,172.857,51.35L178.269,49.932C173.218,53.744,174.661,54.735,172.857,57.145L177.891,56.274L175.623,60L245,60L245,60L245,35.197C245,35.197,245,35.197,245,35.197C240.533,32.103,234.898,30.991,230.035,33.043C241.461,35.812,244.588,48.205,241.358,53.145C238.076,58.171,231.255,59.658,227.441,56.581C223.489,53.419,226.342,49.06,222.218,45.145C218.095,41.231,217.511,43.726,215.157,43.009C216.531,41.487,219.847,41.829,222.201,41.248C220.105,40.462,219.521,39.179,215.947,38.889C218.782,36.222,220.895,36.94,223.386,35.966C219.761,35.863,220.139,31.812,212.528,35.675L216.05,31.966C213.456,33.094,212.081,30.991,208.267,35.333C207.357,32.974,209.058,32.444,205.518,28.239C200.793,22.632,197.563,27.761,193.698,23.248C189.901,18.752,189.798,11.795,198.457,8.564C205.896,5.795,212.94,10.051,216.995,20.581C219.349,12.855,215.827,3.863,208.869,0ZC208.869,0,208.869,0,208.869,0ZM0,60L0,60ZL21.012,60L20.875,59.709L20.497,59.094L20.05,58.53L19.518,58.034L18.899,57.607L18.212,57.231L17.439,56.889L16.597,56.632L15.686,56.41L14.69,56.239L13.642,56.12L11.305,56.017L7.096,56.017L6.116,56L5.292,55.915L4.931,55.846L4.622,55.761L4.33,55.675L4.089,55.573L3.866,55.453L3.694,55.316L3.539,55.162L3.419,54.991L3.316,54.803L3.247,54.598L3.213,54.393L3.196,54.154L3.213,53.863L3.23,53.726L3.247,53.59L3.282,53.47L3.316,53.35L3.35,53.248L3.402,53.128L3.471,53.026L3.522,52.923L3.591,52.838L3.677,52.735L3.849,52.547L4.055,52.342L4.914,52.564L5.721,52.701L6.116,52.769L6.494,52.803L6.855,52.821L7.199,52.821L8.281,52.803L9.346,52.701L10.36,52.53L11.322,52.308L12.25,52.017L13.126,51.641L13.934,51.214L14.69,50.701L15.36,50.12L15.978,49.47L16.494,48.735L16.94,47.932L17.301,47.06L17.559,46.103L17.714,45.06L17.765,43.949L17.748,43.47L17.696,43.009L17.628,42.547L17.525,42.12L17.404,41.709L17.267,41.333L17.129,40.991L16.975,40.701L21.133,40.701L21.133,34.735L11.357,34.735L10.893,34.581L10.412,34.462L9.896,34.342L9.381,34.256L8.848,34.188L8.316,34.137L7.766,34.103L7.199,34.103L6.134,34.137L5.068,34.239L4.038,34.427L3.041,34.684L2.079,35.026L1.151,35.436L0.292,35.915L0,36.12L0,36.12L0,60Z" fill="url(#fill-0-a2d35d11-3412-11ed-831b-33d9d1bcbcc7)"/></g><g id="strokes-f7ff5e75-3411-11ed-b999-6b21fcc48d1d"><g class="stroke-shape"><path rx="0" ry="0" d="M0,0L208.869,0L208.869,0L245,0L245,35.197L245,60L245,60L175.623,60L175.623,60L166.518,60L158.254,60L158.254,60L150.505,60L142.292,60L142.292,60L134.046,60L119.304,60L119.304,60L110.834,60L88.671,60L88.671,60L80.132,60L73.208,60L73.208,60L70.047,60L58.965,60L58.965,60L49.911,60L41.647,60L41.647,60L33.898,60L25.685,60L21.012,60L0,60L0,60L0,60L0,36.12L0,36.12L0,0ZM120.902,44.906L121.022,44.342L121.177,43.812L121.349,43.333L121.572,42.889L121.796,42.479L122.07,42.103L122.345,41.761L122.655,41.453L122.981,41.197L123.342,40.957L123.703,40.769L124.098,40.598L124.493,40.479L124.905,40.393L125.335,40.342L125.764,40.325L126.314,40.342L126.795,40.41L127.259,40.53L127.671,40.667L128.049,40.855L128.393,41.077L128.702,41.35L128.96,41.641L129.201,41.949L129.407,42.308L129.561,42.684L129.699,43.077L129.802,43.504L129.871,43.949L129.922,44.427L129.922,44.906L120.902,44.906ZM97.021,47.88L96.66,47.863L96.316,47.812L95.99,47.726L95.681,47.607L95.388,47.47L95.114,47.282L94.856,47.06L94.615,46.821L94.409,46.53L94.22,46.222L94.048,45.88L93.911,45.504L93.808,45.094L93.722,44.65L93.67,44.171L93.653,43.675L93.67,43.179L93.722,42.718L93.791,42.291L93.911,41.897L94.031,41.521L94.203,41.179L94.392,40.889L94.598,40.615L94.839,40.376L95.079,40.154L95.371,39.983L95.663,39.846L95.973,39.726L96.299,39.641L96.66,39.59L97.021,39.573L97.381,39.59L97.725,39.641L98.069,39.726L98.378,39.846L98.67,39.983L98.945,40.154L99.203,40.376L99.443,40.615L99.649,40.889L99.838,41.179L99.993,41.521L100.13,41.897L100.234,42.291L100.319,42.718L100.371,43.179L100.388,43.675L100.371,44.171L100.319,44.65L100.234,45.094L100.13,45.504L99.993,45.88L99.838,46.222L99.649,46.53L99.443,46.821L99.203,47.06L98.945,47.282L98.67,47.47L98.378,47.607L98.069,47.726L97.725,47.812L97.381,47.863L97.021,47.88ZM7.199,47.88L6.855,47.863L6.512,47.812L6.185,47.726L5.859,47.607L5.567,47.47L5.292,47.282L5.034,47.06L4.793,46.821L4.587,46.53L4.398,46.222L4.227,45.88L4.089,45.504L3.986,45.094L3.9,44.65L3.849,44.171L3.849,43.675L3.849,43.179L3.9,42.718L3.986,42.291L4.089,41.897L4.227,41.521L4.381,41.179L4.57,40.889L4.776,40.615L5.017,40.376L5.275,40.154L5.549,39.983L5.842,39.846L6.151,39.726L6.494,39.641L6.838,39.59L7.199,39.573L7.56,39.59L7.92,39.641L8.247,39.726L8.556,39.846L8.865,39.983L9.14,40.154L9.398,40.376L9.621,40.615L9.827,40.889L10.016,41.179L10.188,41.521L10.309,41.897L10.429,42.291L10.498,42.718L10.549,43.179L10.566,43.675L10.549,44.171L10.498,44.65L10.429,45.094L10.309,45.504L10.188,45.88L10.016,46.222L9.827,46.53L9.621,46.821L9.398,47.06L9.14,47.282L8.865,47.47L8.556,47.607L8.247,47.726L7.92,47.812L7.56,47.863L7.199,47.88ZM41.647,60L49.911,60L49.911,44.786L49.893,43.59L49.808,42.444L49.653,41.35L49.447,40.342L49.172,39.385L48.828,38.513L48.433,37.709L47.969,36.974L47.437,36.325L46.835,35.744L46.165,35.248L45.409,34.838L44.602,34.513L43.708,34.291L42.746,34.154L41.698,34.103L41.028,34.12L40.375,34.188L39.757,34.274L39.155,34.41L38.554,34.581L37.987,34.786L37.437,35.009L36.922,35.265L35.908,35.846L34.946,36.53L34.053,37.248L33.211,38.034L33.005,38.034L32.403,34.735L25.685,34.735L25.685,60L33.898,60L33.898,43.47L35.066,42.462L35.616,42.051L36.149,41.709L36.424,41.556L36.698,41.436L36.973,41.316L37.265,41.231L37.575,41.162L37.884,41.111L38.21,41.077L38.554,41.077L38.932,41.077L39.293,41.128L39.619,41.197L39.928,41.299L40.221,41.436L40.461,41.624L40.702,41.829L40.891,42.085L41.08,42.393L41.234,42.735L41.354,43.128L41.458,43.556L41.543,44.051L41.595,44.598L41.647,45.863L41.647,60ZM73.208,60L80.132,60L80.132,34.735L71.851,34.735L71.851,52.085L71.335,52.769L70.82,53.333L70.562,53.59L70.304,53.812L70.064,54L69.806,54.171L69.531,54.325L69.273,54.462L68.999,54.564L68.707,54.65L68.397,54.718L68.088,54.769L67.762,54.786L67.418,54.803L67.04,54.786L66.679,54.752L66.353,54.667L66.043,54.581L65.769,54.444L65.511,54.274L65.288,54.051L65.081,53.812L64.892,53.504L64.755,53.179L64.617,52.786L64.514,52.359L64.428,51.863L64.377,51.316L64.325,50.068L64.325,34.735L56.061,34.735L56.061,51.128L56.096,52.342L56.182,53.487L56.319,54.564L56.525,55.573L56.8,56.53L57.144,57.402L57.539,58.222L58.02,58.94L58.553,59.607L58.965,60L70.047,60L70.047,60L70.442,59.709L70.888,59.333L71.765,58.496L72.607,57.573L72.813,57.573L73.208,60ZM88.671,60L110.834,60L110.697,59.709L110.319,59.094L109.855,58.53L109.322,58.034L108.721,57.607L108.016,57.231L107.261,56.889L106.419,56.632L105.491,56.41L104.512,56.239L103.446,56.12L101.127,56.017L96.918,56.017L95.938,56L95.114,55.915L94.753,55.846L94.444,55.761L94.151,55.675L93.911,55.573L93.688,55.453L93.499,55.316L93.344,55.162L93.224,54.991L93.138,54.803L93.069,54.598L93.035,54.393L93.018,54.154L93.035,53.863L93.052,53.726L93.069,53.59L93.103,53.47L93.138,53.35L93.172,53.248L93.224,53.128L93.275,53.026L93.344,52.923L93.413,52.838L93.481,52.735L93.67,52.547L93.877,52.342L94.736,52.564L95.543,52.701L95.938,52.769L96.316,52.803L96.677,52.821L97.021,52.821L98.103,52.803L99.151,52.701L100.182,52.53L101.144,52.308L102.072,52.017L102.948,51.641L103.756,51.214L104.512,50.701L105.182,50.12L105.783,49.47L106.316,48.735L106.762,47.932L107.106,47.06L107.364,46.103L107.535,45.06L107.587,43.949L107.57,43.47L107.518,43.009L107.45,42.547L107.346,42.12L107.226,41.709L107.089,41.333L106.934,40.991L106.779,40.701L110.954,40.701L110.954,34.735L101.178,34.735L100.715,34.581L100.216,34.462L99.718,34.342L99.203,34.256L98.67,34.188L98.12,34.137L97.57,34.103L97.021,34.103L95.938,34.137L94.89,34.239L93.859,34.427L92.846,34.684L91.884,35.026L90.973,35.436L90.114,35.915L89.306,36.479L88.568,37.111L87.915,37.812L87.331,38.598L86.85,39.47L86.454,40.393L86.162,41.419L85.973,42.513L85.922,43.675L85.939,44.239L85.991,44.803L86.094,45.333L86.214,45.863L86.369,46.359L86.558,46.855L86.764,47.316L87.004,47.761L87.262,48.188L87.537,48.581L87.829,48.957L88.155,49.316L88.465,49.641L88.808,49.949L89.152,50.239L89.495,50.496L89.495,50.701L88.877,51.197L88.31,51.744L88.052,52.034L87.812,52.325L87.588,52.65L87.382,52.957L87.193,53.282L87.039,53.624L86.901,53.966L86.781,54.308L86.678,54.65L86.609,55.009L86.575,55.35L86.558,55.709L86.575,56.103L86.609,56.479L86.661,56.855L86.746,57.197L86.832,57.521L86.953,57.846L87.09,58.137L87.245,58.427L87.399,58.684L87.588,58.94L87.795,59.197L88.001,59.419L88.224,59.641L88.465,59.846L88.671,60ZL88.671,60ZM119.304,60L134.046,60L134.939,59.538L136.021,58.838L133.341,53.897L132.637,54.274L131.932,54.598L131.228,54.889L130.506,55.111L129.785,55.299L129.08,55.436L128.359,55.521L127.637,55.538L127.019,55.521L126.417,55.47L125.833,55.385L125.283,55.248L124.768,55.077L124.252,54.872L123.789,54.615L123.342,54.325L122.93,54L122.552,53.624L122.208,53.197L121.899,52.735L121.624,52.222L121.383,51.675L121.177,51.077L121.022,50.427L136.657,50.427L136.709,50.12L136.777,49.761L136.88,48.906L136.949,47.897L136.966,46.821L136.932,45.487L136.795,44.205L136.571,42.974L136.262,41.795L135.867,40.684L135.386,39.641L134.819,38.667L134.149,37.761L133.393,36.957L132.551,36.222L131.606,35.607L130.575,35.077L129.458,34.65L128.256,34.342L126.95,34.154L125.558,34.103L124.373,34.154L123.187,34.342L122.036,34.632L120.919,35.06L119.837,35.59L118.789,36.222L117.81,36.957L116.899,37.795L116.057,38.752L115.301,39.795L114.648,40.923L114.081,42.154L113.617,43.47L113.291,44.872L113.085,46.359L113.016,47.932L113.085,49.538L113.274,51.06L113.6,52.496L114.047,53.829L114.597,55.077L115.267,56.205L116.04,57.248L116.899,58.188L117.844,59.026L118.875,59.761L119.304,60ZM158.254,60L166.518,60L166.518,44.786L166.483,43.59L166.397,42.444L166.26,41.35L166.036,40.342L165.779,39.385L165.435,38.513L165.04,37.709L164.576,36.974L164.043,36.325L163.425,35.744L162.755,35.248L162.016,34.838L161.191,34.513L160.315,34.291L159.336,34.154L158.305,34.103L157.635,34.12L156.982,34.188L156.364,34.274L155.745,34.41L155.161,34.581L154.594,34.786L154.044,35.009L153.512,35.265L152.498,35.846L151.553,36.53L150.66,37.248L149.818,38.034L149.594,38.034L149.01,34.735L142.292,34.735L142.292,60L150.505,60L150.505,43.47L151.673,42.462L152.206,42.051L152.756,41.709L153.013,41.556L153.305,41.436L153.58,41.316L153.872,41.231L154.164,41.162L154.491,41.111L154.817,41.077L155.144,41.077L155.539,41.077L155.9,41.128L156.226,41.197L156.535,41.299L156.81,41.436L157.068,41.624L157.291,41.829L157.498,42.085L157.669,42.393L157.824,42.735L157.961,43.128L158.065,43.556L158.15,44.051L158.202,44.598L158.254,45.863L158.254,60ZM208.869,0L193.028,0C192.495,0.239,191.962,0.496,191.43,0.786C179.695,7.077,179.094,14.085,179.214,21.453C179.317,28.838,184.661,33.504,189.884,34.308C183.269,36.615,179.523,29.726,174.335,27.436C169.421,32.615,172.892,40.974,180.675,43.197C173.321,42.513,175.469,48.632,172.857,51.35L178.269,49.932C173.218,53.744,174.661,54.735,172.857,57.145L177.891,56.274L175.623,60L245,60L245,60L245,35.197C245,35.197,245,35.197,245,35.197C240.533,32.103,234.898,30.991,230.035,33.043C241.461,35.812,244.588,48.205,241.358,53.145C238.076,58.171,231.255,59.658,227.441,56.581C223.489,53.419,226.342,49.06,222.218,45.145C218.095,41.231,217.511,43.726,215.157,43.009C216.531,41.487,219.847,41.829,222.201,41.248C220.105,40.462,219.521,39.179,215.947,38.889C218.782,36.222,220.895,36.94,223.386,35.966C219.761,35.863,220.139,31.812,212.528,35.675L216.05,31.966C213.456,33.094,212.081,30.991,208.267,35.333C207.357,32.974,209.058,32.444,205.518,28.239C200.793,22.632,197.563,27.761,193.698,23.248C189.901,18.752,189.798,11.795,198.457,8.564C205.896,5.795,212.94,10.051,216.995,20.581C219.349,12.855,215.827,3.863,208.869,0ZC208.869,0,208.869,0,208.869,0ZM0,60L0,60ZL21.012,60L20.875,59.709L20.497,59.094L20.05,58.53L19.518,58.034L18.899,57.607L18.212,57.231L17.439,56.889L16.597,56.632L15.686,56.41L14.69,56.239L13.642,56.12L11.305,56.017L7.096,56.017L6.116,56L5.292,55.915L4.931,55.846L4.622,55.761L4.33,55.675L4.089,55.573L3.866,55.453L3.694,55.316L3.539,55.162L3.419,54.991L3.316,54.803L3.247,54.598L3.213,54.393L3.196,54.154L3.213,53.863L3.23,53.726L3.247,53.59L3.282,53.47L3.316,53.35L3.35,53.248L3.402,53.128L3.471,53.026L3.522,52.923L3.591,52.838L3.677,52.735L3.849,52.547L4.055,52.342L4.914,52.564L5.721,52.701L6.116,52.769L6.494,52.803L6.855,52.821L7.199,52.821L8.281,52.803L9.346,52.701L10.36,52.53L11.322,52.308L12.25,52.017L13.126,51.641L13.934,51.214L14.69,50.701L15.36,50.12L15.978,49.47L16.494,48.735L16.94,47.932L17.301,47.06L17.559,46.103L17.714,45.06L17.765,43.949L17.748,43.47L17.696,43.009L17.628,42.547L17.525,42.12L17.404,41.709L17.267,41.333L17.129,40.991L16.975,40.701L21.133,40.701L21.133,34.735L11.357,34.735L10.893,34.581L10.412,34.462L9.896,34.342L9.381,34.256L8.848,34.188L8.316,34.137L7.766,34.103L7.199,34.103L6.134,34.137L5.068,34.239L4.038,34.427L3.041,34.684L2.079,35.026L1.151,35.436L0.292,35.915L0,36.12L0,36.12L0,60Z" style="fill: none; stroke-width: 28.222;"/></g></g></g></g></g></g></g></g></g></g></svg>